/* XPM */
static char * lock_xpm[] = {
"22 22 4 1",
" 	c None",
".	c #E8E8E8",
"+	c #FFFFFF",
"@	c #E5E5E5",
"                      ",
"                      ",
"                      ",
"                      ",
"        .++++.        ",
"        +    +        ",
"        +    +        ",
"        +    +        ",
"        +    +        ",
"      @++++++++@      ",
"      ++++++++++      ",
"      ++++++++++      ",
"      ++++++++++      ",
"      ++++++++++      ",
"      ++++++++++      ",
"      ++++++++++      ",
"                      ",
"                      ",
"                      ",
"                      ",
"                      ",
"                      "};
