/* XPM */
static char * top_xpm[] = {
"22 22 6 1",
" 	c None",
".	c #FFFFFF",
"+	c #878787",
"@	c #F7F7F7",
"#	c #FBFBFB",
"$	c #EFEFEF",
"                      ",
"                      ",
"                      ",
"     ............     ",
"     ............     ",
"          ++          ",
"          ..          ",
"         @..@         ",
"         ....         ",
"        ......        ",
"       @......@       ",
"       ........       ",
"      .........#      ",
"     $##......##$     ",
"        ......        ",
"        ......        ",
"        ......        ",
"        ......        ",
"                      ",
"                      ",
"                      ",
"                      "};
